<?xml version="1.0" standalone="no"?>
<!DOCTYPE svg PUBLIC "-//W3C//DTD SVG 20010904//EN"
 "http://www.w3.org/TR/2001/REC-SVG-20010904/DTD/svg10.dtd">
<svg version="1.0" xmlns="http://www.w3.org/2000/svg"
 width="720.000000pt" height="720.000000pt" viewBox="0 0 720.000000 720.000000"
 preserveAspectRatio="xMidYMid meet">
<metadata>
Created by potrace 1.11, written by Peter Selinger 2001-2013
</metadata>
<g transform="translate(0.000000,720.000000) scale(0.100000,-0.100000)"
fill="#000000" stroke="none">
<path d="M5262 3915 c-220 -40 -395 -129 -533 -272 -109 -112 -166 -212 -211
-370 -33 -112 -33 -367 0 -496 44 -175 122 -307 258 -437 140 -133 287 -218
643 -372 345 -148 447 -213 506 -319 27 -49 30 -63 30 -144 0 -67 -5 -99 -18
-126 -69 -139 -217 -209 -439 -209 -211 0 -350 55 -493 195 -45 44 -101 108
-124 143 -28 41 -48 62 -57 58 -32 -12 -534 -308 -534 -315 0 -14 72 -127 126
-198 263 -344 734 -527 1242 -483 507 44 845 287 954 685 18 67 22 108 22 255
1 150 -3 188 -22 264 -90 357 -335 571 -952 831 -401 170 -500 256 -500 440 0
121 54 211 158 262 52 26 66 28 172 28 108 0 119 -2 180 -31 86 -42 140 -90
198 -179 l48 -73 249 160 c138 88 256 165 263 172 29 28 -168 274 -293 365
-113 82 -260 140 -420 166 -110 18 -353 18 -453 0z"/>
<path d="M3244 3885 c-2 -5 -5 -561 -6 -1235 l-3 -1225 -22 -56 c-57 -140
-153 -199 -324 -199 -170 0 -284 79 -399 274 l-43 73 -271 -164 c-202 -122
-271 -169 -270 -182 1 -35 108 -193 188 -278 96 -102 171 -157 297 -218 308
-148 754 -146 1057 6 229 115 373 309 445 598 21 85 21 101 24 1351 l4 1265
-337 0 c-215 0 -338 -4 -340 -10z"/>
</g>
</svg>
